<svg id="Layer_8" data-name="Layer 8" xmlns="http://www.w3.org/2000/svg" viewBox="0 0 129.07 166.89"><defs><style>.cls-1{fill:#ecb086;}.cls-2{fill:#b4d9ce;}.cls-3{fill:#fff;}</style></defs><path class="cls-1" d="M485.41,283.9c-.77,22.59-6.88,40.75-17.82,53l-.18.2a51.48,51.48,0,0,1-4.6,4.51c-.69.59-1.38,1.16-2.1,1.71-9.33,7.2-21.17,11.1-35.34,11.1-.73,0-1.45,0-2.17,0-1.53,0-3.05-.16-4.55-.34-1.94-7.1-1.75-11.82-.84-16,1.3-5.95,7.4-16.62,19.9-24.41,13.84-8.63,21.42-21.63,22.16-35.46,0-.05,0-.1,0-.15v-.1c.48-10-3.1-19-10.11-25.41-12.81-11.73-33.28-5.2-40.3-2.43,15.6-13.69,33.16-31.9,35-45.74.06-.43.1-.85.12-1.27a81.77,81.77,0,0,1,18.28,15.19C475.69,232.46,486.43,254,485.41,283.9Z" transform="translate(-356.41 -187.51)"/><path class="cls-2" d="M459.89,277.89v.1c0,.05,0,.1,0,.15-.74,13.83-8.32,26.83-22.16,35.46-12.5,7.79-18.6,18.46-19.9,24.41-.91,4.18-1.1,8.9.84,16,0,.12.06.24.1.37a72.84,72.84,0,0,1-8.16-.62,70.33,70.33,0,0,1-39.68-18.57c-.38-.46-.75-.92-1.11-1.39-18.15-23.25-17.16-61.25-1.21-96.5a99.4,99.4,0,0,1,18.51-26.77c8.88-9.28,20.12-17.54,33.17-21.87,7.74-2.57,15.37-.57,19.9,3.5a12.89,12.89,0,0,1,4.42,10.07q0,.41,0,.81c0,.42-.06.84-.12,1.27-1.8,13.84-19.36,32.05-35,45.74,7-2.77,27.49-9.3,40.3,2.43C456.79,258.86,460.37,267.89,459.89,277.89Z" transform="translate(-356.41 -187.51)"/><circle class="cls-3" cx="64.54" cy="75.08" r="26.84"/><path class="cls-3" d="M454.27,335.28c-7.9,5.69-17.77,8.77-29.49,8.77-.63,0-1.26,0-1.88,0-1.32,0-2.64-.14-3.94-.29a2.66,2.66,0,0,0,.09.32,65.48,65.48,0,0,1-7.07-.54,62.4,62.4,0,0,1-24.28-8.39l22.7-47.82,10.54-22.22,10.55,22.22Z" transform="translate(-356.41 -187.51)"/></svg>